<svg width="436" height="24" viewBox="0 0 436 24" fill="none" xmlns="http://www.w3.org/2000/svg">
<rect width="436" height="24" fill="white"/>
<path d="M397.73 7.0127V17H396.083V8.96777L393.643 9.79492V8.43457L397.532 7.0127H397.73ZM407.861 15.6875V17H401.189V15.8721L404.43 12.3379C404.785 11.9368 405.065 11.5905 405.271 11.2988C405.476 11.0072 405.619 10.7451 405.701 10.5127C405.788 10.2757 405.831 10.0456 405.831 9.82227C405.831 9.50781 405.772 9.2321 405.653 8.99512C405.539 8.75358 405.371 8.56445 405.147 8.42773C404.924 8.28646 404.653 8.21582 404.334 8.21582C403.965 8.21582 403.655 8.29557 403.404 8.45508C403.154 8.61458 402.965 8.83561 402.837 9.11816C402.709 9.39616 402.646 9.71517 402.646 10.0752H400.998C400.998 9.49642 401.13 8.96777 401.395 8.48926C401.659 8.00618 402.042 7.62337 402.543 7.34082C403.044 7.05371 403.648 6.91016 404.354 6.91016C405.02 6.91016 405.585 7.02181 406.05 7.24512C406.515 7.46842 406.868 7.78516 407.109 8.19531C407.355 8.60547 407.479 9.09082 407.479 9.65137C407.479 9.96126 407.428 10.2689 407.328 10.5742C407.228 10.8796 407.084 11.1849 406.897 11.4902C406.715 11.791 406.499 12.0941 406.248 12.3994C405.997 12.7002 405.722 13.0055 405.421 13.3154L403.268 15.6875H407.861ZM409.263 16.1797C409.263 15.9245 409.349 15.7103 409.522 15.5371C409.696 15.3594 409.93 15.2705 410.227 15.2705C410.527 15.2705 410.762 15.3594 410.931 15.5371C411.104 15.7103 411.19 15.9245 411.19 16.1797C411.19 16.4349 411.104 16.6491 410.931 16.8223C410.762 16.9954 410.527 17.082 410.227 17.082C409.93 17.082 409.696 16.9954 409.522 16.8223C409.349 16.6491 409.263 16.4349 409.263 16.1797ZM409.27 10.3555C409.27 10.1003 409.356 9.88607 409.529 9.71289C409.702 9.53516 409.937 9.44629 410.233 9.44629C410.534 9.44629 410.769 9.53516 410.938 9.71289C411.111 9.88607 411.197 10.1003 411.197 10.3555C411.197 10.6107 411.111 10.8249 410.938 10.998C410.769 11.1712 410.534 11.2578 410.233 11.2578C409.937 11.2578 409.702 11.1712 409.529 10.998C409.356 10.8249 409.27 10.6107 409.27 10.3555ZM414.772 11.2783H415.757C416.14 11.2783 416.456 11.2122 416.707 11.0801C416.962 10.9479 417.151 10.7656 417.274 10.5332C417.397 10.3008 417.459 10.0342 417.459 9.7334C417.459 9.41895 417.402 9.15007 417.288 8.92676C417.179 8.69889 417.01 8.52344 416.782 8.40039C416.559 8.27734 416.274 8.21582 415.928 8.21582C415.636 8.21582 415.372 8.27507 415.135 8.39355C414.902 8.50749 414.718 8.67155 414.581 8.88574C414.444 9.09538 414.376 9.34603 414.376 9.6377H412.722C412.722 9.10905 412.861 8.63965 413.139 8.22949C413.417 7.81934 413.795 7.49805 414.273 7.26562C414.757 7.02865 415.299 6.91016 415.9 6.91016C416.543 6.91016 417.104 7.01725 417.582 7.23145C418.065 7.44108 418.441 7.75553 418.71 8.1748C418.979 8.59408 419.113 9.11361 419.113 9.7334C419.113 10.016 419.047 10.3031 418.915 10.5947C418.783 10.8864 418.587 11.153 418.327 11.3945C418.067 11.6315 417.744 11.8252 417.356 11.9756C416.969 12.1214 416.52 12.1943 416.01 12.1943H414.772V11.2783ZM414.772 12.5635V11.6611H416.01C416.593 11.6611 417.09 11.7295 417.5 11.8662C417.915 12.0029 418.252 12.1921 418.512 12.4336C418.771 12.6706 418.961 12.9417 419.079 13.2471C419.202 13.5524 419.264 13.876 419.264 14.2178C419.264 14.6826 419.179 15.0973 419.011 15.4619C418.847 15.8219 418.612 16.1273 418.307 16.3779C418.001 16.6286 417.644 16.8177 417.233 16.9453C416.828 17.0729 416.386 17.1367 415.907 17.1367C415.479 17.1367 415.069 17.0775 414.677 16.959C414.285 16.8405 413.934 16.665 413.624 16.4326C413.314 16.1956 413.068 15.9017 412.886 15.5508C412.708 15.1953 412.619 14.7852 412.619 14.3203H414.267C414.267 14.6165 414.335 14.8786 414.472 15.1064C414.613 15.3298 414.809 15.5052 415.06 15.6328C415.315 15.7604 415.606 15.8242 415.935 15.8242C416.281 15.8242 416.579 15.7627 416.83 15.6396C417.081 15.5166 417.272 15.3343 417.404 15.0928C417.541 14.8512 417.609 14.5596 417.609 14.2178C417.609 13.8304 417.534 13.516 417.384 13.2744C417.233 13.0329 417.019 12.8551 416.741 12.7412C416.463 12.6227 416.135 12.5635 415.757 12.5635H414.772ZM427.282 11.1895V12.8164C427.282 13.5957 427.205 14.2611 427.05 14.8125C426.899 15.3594 426.681 15.8037 426.394 16.1455C426.106 16.4873 425.762 16.738 425.361 16.8975C424.965 17.057 424.521 17.1367 424.028 17.1367C423.636 17.1367 423.272 17.0866 422.935 16.9863C422.602 16.8861 422.301 16.7288 422.032 16.5146C421.763 16.3005 421.533 16.0247 421.342 15.6875C421.155 15.3457 421.009 14.9378 420.904 14.4639C420.804 13.9899 420.754 13.4408 420.754 12.8164V11.1895C420.754 10.4056 420.831 9.74479 420.986 9.20703C421.141 8.66471 421.362 8.22493 421.649 7.8877C421.937 7.5459 422.278 7.29753 422.675 7.14258C423.076 6.98763 423.522 6.91016 424.015 6.91016C424.411 6.91016 424.776 6.96029 425.108 7.06055C425.446 7.15625 425.746 7.30892 426.011 7.51855C426.28 7.72819 426.507 8.00163 426.694 8.33887C426.886 8.67155 427.032 9.07487 427.132 9.54883C427.232 10.0182 427.282 10.5651 427.282 11.1895ZM425.635 13.0488V10.9434C425.635 10.5469 425.612 10.1982 425.566 9.89746C425.521 9.59212 425.452 9.33464 425.361 9.125C425.275 8.91081 425.165 8.73763 425.033 8.60547C424.901 8.46875 424.751 8.37077 424.582 8.31152C424.413 8.24772 424.224 8.21582 424.015 8.21582C423.759 8.21582 423.532 8.26595 423.331 8.36621C423.131 8.46191 422.962 8.61686 422.825 8.83105C422.688 9.04525 422.584 9.3278 422.511 9.67871C422.442 10.0251 422.408 10.4466 422.408 10.9434V13.0488C422.408 13.4499 422.431 13.8031 422.477 14.1084C422.522 14.4137 422.59 14.6758 422.682 14.8945C422.773 15.1087 422.882 15.2865 423.01 15.4277C423.142 15.5645 423.292 15.6647 423.461 15.7285C423.634 15.7923 423.823 15.8242 424.028 15.8242C424.288 15.8242 424.518 15.7741 424.719 15.6738C424.919 15.5736 425.088 15.4141 425.225 15.1953C425.361 14.972 425.464 14.6826 425.532 14.3271C425.601 13.9717 425.635 13.5456 425.635 13.0488Z" fill="black" fill-opacity="0.7"/>
<path d="M397.73 7.0127V17H396.083V8.96777L393.643 9.79492V8.43457L397.532 7.0127H397.73ZM407.861 15.6875V17H401.189V15.8721L404.43 12.3379C404.785 11.9368 405.065 11.5905 405.271 11.2988C405.476 11.0072 405.619 10.7451 405.701 10.5127C405.788 10.2757 405.831 10.0456 405.831 9.82227C405.831 9.50781 405.772 9.2321 405.653 8.99512C405.539 8.75358 405.371 8.56445 405.147 8.42773C404.924 8.28646 404.653 8.21582 404.334 8.21582C403.965 8.21582 403.655 8.29557 403.404 8.45508C403.154 8.61458 402.965 8.83561 402.837 9.11816C402.709 9.39616 402.646 9.71517 402.646 10.0752H400.998C400.998 9.49642 401.13 8.96777 401.395 8.48926C401.659 8.00618 402.042 7.62337 402.543 7.34082C403.044 7.05371 403.648 6.91016 404.354 6.91016C405.02 6.91016 405.585 7.02181 406.05 7.24512C406.515 7.46842 406.868 7.78516 407.109 8.19531C407.355 8.60547 407.479 9.09082 407.479 9.65137C407.479 9.96126 407.428 10.2689 407.328 10.5742C407.228 10.8796 407.084 11.1849 406.897 11.4902C406.715 11.791 406.499 12.0941 406.248 12.3994C405.997 12.7002 405.722 13.0055 405.421 13.3154L403.268 15.6875H407.861ZM409.263 16.1797C409.263 15.9245 409.349 15.7103 409.522 15.5371C409.696 15.3594 409.93 15.2705 410.227 15.2705C410.527 15.2705 410.762 15.3594 410.931 15.5371C411.104 15.7103 411.19 15.9245 411.19 16.1797C411.19 16.4349 411.104 16.6491 410.931 16.8223C410.762 16.9954 410.527 17.082 410.227 17.082C409.93 17.082 409.696 16.9954 409.522 16.8223C409.349 16.6491 409.263 16.4349 409.263 16.1797ZM409.27 10.3555C409.27 10.1003 409.356 9.88607 409.529 9.71289C409.702 9.53516 409.937 9.44629 410.233 9.44629C410.534 9.44629 410.769 9.53516 410.938 9.71289C411.111 9.88607 411.197 10.1003 411.197 10.3555C411.197 10.6107 411.111 10.8249 410.938 10.998C410.769 11.1712 410.534 11.2578 410.233 11.2578C409.937 11.2578 409.702 11.1712 409.529 10.998C409.356 10.8249 409.27 10.6107 409.27 10.3555ZM414.772 11.2783H415.757C416.14 11.2783 416.456 11.2122 416.707 11.0801C416.962 10.9479 417.151 10.7656 417.274 10.5332C417.397 10.3008 417.459 10.0342 417.459 9.7334C417.459 9.41895 417.402 9.15007 417.288 8.92676C417.179 8.69889 417.01 8.52344 416.782 8.40039C416.559 8.27734 416.274 8.21582 415.928 8.21582C415.636 8.21582 415.372 8.27507 415.135 8.39355C414.902 8.50749 414.718 8.67155 414.581 8.88574C414.444 9.09538 414.376 9.34603 414.376 9.6377H412.722C412.722 9.10905 412.861 8.63965 413.139 8.22949C413.417 7.81934 413.795 7.49805 414.273 7.26562C414.757 7.02865 415.299 6.91016 415.9 6.91016C416.543 6.91016 417.104 7.01725 417.582 7.23145C418.065 7.44108 418.441 7.75553 418.71 8.1748C418.979 8.59408 419.113 9.11361 419.113 9.7334C419.113 10.016 419.047 10.3031 418.915 10.5947C418.783 10.8864 418.587 11.153 418.327 11.3945C418.067 11.6315 417.744 11.8252 417.356 11.9756C416.969 12.1214 416.52 12.1943 416.01 12.1943H414.772V11.2783ZM414.772 12.5635V11.6611H416.01C416.593 11.6611 417.09 11.7295 417.5 11.8662C417.915 12.0029 418.252 12.1921 418.512 12.4336C418.771 12.6706 418.961 12.9417 419.079 13.2471C419.202 13.5524 419.264 13.876 419.264 14.2178C419.264 14.6826 419.179 15.0973 419.011 15.4619C418.847 15.8219 418.612 16.1273 418.307 16.3779C418.001 16.6286 417.644 16.8177 417.233 16.9453C416.828 17.0729 416.386 17.1367 415.907 17.1367C415.479 17.1367 415.069 17.0775 414.677 16.959C414.285 16.8405 413.934 16.665 413.624 16.4326C413.314 16.1956 413.068 15.9017 412.886 15.5508C412.708 15.1953 412.619 14.7852 412.619 14.3203H414.267C414.267 14.6165 414.335 14.8786 414.472 15.1064C414.613 15.3298 414.809 15.5052 415.06 15.6328C415.315 15.7604 415.606 15.8242 415.935 15.8242C416.281 15.8242 416.579 15.7627 416.83 15.6396C417.081 15.5166 417.272 15.3343 417.404 15.0928C417.541 14.8512 417.609 14.5596 417.609 14.2178C417.609 13.8304 417.534 13.516 417.384 13.2744C417.233 13.0329 417.019 12.8551 416.741 12.7412C416.463 12.6227 416.135 12.5635 415.757 12.5635H414.772ZM427.282 11.1895V12.8164C427.282 13.5957 427.205 14.2611 427.05 14.8125C426.899 15.3594 426.681 15.8037 426.394 16.1455C426.106 16.4873 425.762 16.738 425.361 16.8975C424.965 17.057 424.521 17.1367 424.028 17.1367C423.636 17.1367 423.272 17.0866 422.935 16.9863C422.602 16.8861 422.301 16.7288 422.032 16.5146C421.763 16.3005 421.533 16.0247 421.342 15.6875C421.155 15.3457 421.009 14.9378 420.904 14.4639C420.804 13.9899 420.754 13.4408 420.754 12.8164V11.1895C420.754 10.4056 420.831 9.74479 420.986 9.20703C421.141 8.66471 421.362 8.22493 421.649 7.8877C421.937 7.5459 422.278 7.29753 422.675 7.14258C423.076 6.98763 423.522 6.91016 424.015 6.91016C424.411 6.91016 424.776 6.96029 425.108 7.06055C425.446 7.15625 425.746 7.30892 426.011 7.51855C426.28 7.72819 426.507 8.00163 426.694 8.33887C426.886 8.67155 427.032 9.07487 427.132 9.54883C427.232 10.0182 427.282 10.5651 427.282 11.1895ZM425.635 13.0488V10.9434C425.635 10.5469 425.612 10.1982 425.566 9.89746C425.521 9.59212 425.452 9.33464 425.361 9.125C425.275 8.91081 425.165 8.73763 425.033 8.60547C424.901 8.46875 424.751 8.37077 424.582 8.31152C424.413 8.24772 424.224 8.21582 424.015 8.21582C423.759 8.21582 423.532 8.26595 423.331 8.36621C423.131 8.46191 422.962 8.61686 422.825 8.83105C422.688 9.04525 422.584 9.3278 422.511 9.67871C422.442 10.0251 422.408 10.4466 422.408 10.9434V13.0488C422.408 13.4499 422.431 13.8031 422.477 14.1084C422.522 14.4137 422.59 14.6758 422.682 14.8945C422.773 15.1087 422.882 15.2865 423.01 15.4277C423.142 15.5645 423.292 15.6647 423.461 15.7285C423.634 15.7923 423.823 15.8242 424.028 15.8242C424.288 15.8242 424.518 15.7741 424.719 15.6738C424.919 15.5736 425.088 15.4141 425.225 15.1953C425.361 14.972 425.464 14.6826 425.532 14.3271C425.601 13.9717 425.635 13.5456 425.635 13.0488Z" fill="black" fill-opacity="0.7"/>
<path d="M397.73 7.0127V17H396.083V8.96777L393.643 9.79492V8.43457L397.532 7.0127H397.73ZM407.861 15.6875V17H401.189V15.8721L404.43 12.3379C404.785 11.9368 405.065 11.5905 405.271 11.2988C405.476 11.0072 405.619 10.7451 405.701 10.5127C405.788 10.2757 405.831 10.0456 405.831 9.82227C405.831 9.50781 405.772 9.2321 405.653 8.99512C405.539 8.75358 405.371 8.56445 405.147 8.42773C404.924 8.28646 404.653 8.21582 404.334 8.21582C403.965 8.21582 403.655 8.29557 403.404 8.45508C403.154 8.61458 402.965 8.83561 402.837 9.11816C402.709 9.39616 402.646 9.71517 402.646 10.0752H400.998C400.998 9.49642 401.13 8.96777 401.395 8.48926C401.659 8.00618 402.042 7.62337 402.543 7.34082C403.044 7.05371 403.648 6.91016 404.354 6.91016C405.02 6.91016 405.585 7.02181 406.05 7.24512C406.515 7.46842 406.868 7.78516 407.109 8.19531C407.355 8.60547 407.479 9.09082 407.479 9.65137C407.479 9.96126 407.428 10.2689 407.328 10.5742C407.228 10.8796 407.084 11.1849 406.897 11.4902C406.715 11.791 406.499 12.0941 406.248 12.3994C405.997 12.7002 405.722 13.0055 405.421 13.3154L403.268 15.6875H407.861ZM409.263 16.1797C409.263 15.9245 409.349 15.7103 409.522 15.5371C409.696 15.3594 409.93 15.2705 410.227 15.2705C410.527 15.2705 410.762 15.3594 410.931 15.5371C411.104 15.7103 411.19 15.9245 411.19 16.1797C411.19 16.4349 411.104 16.6491 410.931 16.8223C410.762 16.9954 410.527 17.082 410.227 17.082C409.93 17.082 409.696 16.9954 409.522 16.8223C409.349 16.6491 409.263 16.4349 409.263 16.1797ZM409.27 10.3555C409.27 10.1003 409.356 9.88607 409.529 9.71289C409.702 9.53516 409.937 9.44629 410.233 9.44629C410.534 9.44629 410.769 9.53516 410.938 9.71289C411.111 9.88607 411.197 10.1003 411.197 10.3555C411.197 10.6107 411.111 10.8249 410.938 10.998C410.769 11.1712 410.534 11.2578 410.233 11.2578C409.937 11.2578 409.702 11.1712 409.529 10.998C409.356 10.8249 409.27 10.6107 409.27 10.3555ZM414.772 11.2783H415.757C416.14 11.2783 416.456 11.2122 416.707 11.0801C416.962 10.9479 417.151 10.7656 417.274 10.5332C417.397 10.3008 417.459 10.0342 417.459 9.7334C417.459 9.41895 417.402 9.15007 417.288 8.92676C417.179 8.69889 417.01 8.52344 416.782 8.40039C416.559 8.27734 416.274 8.21582 415.928 8.21582C415.636 8.21582 415.372 8.27507 415.135 8.39355C414.902 8.50749 414.718 8.67155 414.581 8.88574C414.444 9.09538 414.376 9.34603 414.376 9.6377H412.722C412.722 9.10905 412.861 8.63965 413.139 8.22949C413.417 7.81934 413.795 7.49805 414.273 7.26562C414.757 7.02865 415.299 6.91016 415.9 6.91016C416.543 6.91016 417.104 7.01725 417.582 7.23145C418.065 7.44108 418.441 7.75553 418.71 8.1748C418.979 8.59408 419.113 9.11361 419.113 9.7334C419.113 10.016 419.047 10.3031 418.915 10.5947C418.783 10.8864 418.587 11.153 418.327 11.3945C418.067 11.6315 417.744 11.8252 417.356 11.9756C416.969 12.1214 416.52 12.1943 416.01 12.1943H414.772V11.2783ZM414.772 12.5635V11.6611H416.01C416.593 11.6611 417.09 11.7295 417.5 11.8662C417.915 12.0029 418.252 12.1921 418.512 12.4336C418.771 12.6706 418.961 12.9417 419.079 13.2471C419.202 13.5524 419.264 13.876 419.264 14.2178C419.264 14.6826 419.179 15.0973 419.011 15.4619C418.847 15.8219 418.612 16.1273 418.307 16.3779C418.001 16.6286 417.644 16.8177 417.233 16.9453C416.828 17.0729 416.386 17.1367 415.907 17.1367C415.479 17.1367 415.069 17.0775 414.677 16.959C414.285 16.8405 413.934 16.665 413.624 16.4326C413.314 16.1956 413.068 15.9017 412.886 15.5508C412.708 15.1953 412.619 14.7852 412.619 14.3203H414.267C414.267 14.6165 414.335 14.8786 414.472 15.1064C414.613 15.3298 414.809 15.5052 415.06 15.6328C415.315 15.7604 415.606 15.8242 415.935 15.8242C416.281 15.8242 416.579 15.7627 416.83 15.6396C417.081 15.5166 417.272 15.3343 417.404 15.0928C417.541 14.8512 417.609 14.5596 417.609 14.2178C417.609 13.8304 417.534 13.516 417.384 13.2744C417.233 13.0329 417.019 12.8551 416.741 12.7412C416.463 12.6227 416.135 12.5635 415.757 12.5635H414.772ZM427.282 11.1895V12.8164C427.282 13.5957 427.205 14.2611 427.05 14.8125C426.899 15.3594 426.681 15.8037 426.394 16.1455C426.106 16.4873 425.762 16.738 425.361 16.8975C424.965 17.057 424.521 17.1367 424.028 17.1367C423.636 17.1367 423.272 17.0866 422.935 16.9863C422.602 16.8861 422.301 16.7288 422.032 16.5146C421.763 16.3005 421.533 16.0247 421.342 15.6875C421.155 15.3457 421.009 14.9378 420.904 14.4639C420.804 13.9899 420.754 13.4408 420.754 12.8164V11.1895C420.754 10.4056 420.831 9.74479 420.986 9.20703C421.141 8.66471 421.362 8.22493 421.649 7.8877C421.937 7.5459 422.278 7.29753 422.675 7.14258C423.076 6.98763 423.522 6.91016 424.015 6.91016C424.411 6.91016 424.776 6.96029 425.108 7.06055C425.446 7.15625 425.746 7.30892 426.011 7.51855C426.28 7.72819 426.507 8.00163 426.694 8.33887C426.886 8.67155 427.032 9.07487 427.132 9.54883C427.232 10.0182 427.282 10.5651 427.282 11.1895ZM425.635 13.0488V10.9434C425.635 10.5469 425.612 10.1982 425.566 9.89746C425.521 9.59212 425.452 9.33464 425.361 9.125C425.275 8.91081 425.165 8.73763 425.033 8.60547C424.901 8.46875 424.751 8.37077 424.582 8.31152C424.413 8.24772 424.224 8.21582 424.015 8.21582C423.759 8.21582 423.532 8.26595 423.331 8.36621C423.131 8.46191 422.962 8.61686 422.825 8.83105C422.688 9.04525 422.584 9.3278 422.511 9.67871C422.442 10.0251 422.408 10.4466 422.408 10.9434V13.0488C422.408 13.4499 422.431 13.8031 422.477 14.1084C422.522 14.4137 422.59 14.6758 422.682 14.8945C422.773 15.1087 422.882 15.2865 423.01 15.4277C423.142 15.5645 423.292 15.6647 423.461 15.7285C423.634 15.7923 423.823 15.8242 424.028 15.8242C424.288 15.8242 424.518 15.7741 424.719 15.6738C424.919 15.5736 425.088 15.4141 425.225 15.1953C425.361 14.972 425.464 14.6826 425.532 14.3271C425.601 13.9717 425.635 13.5456 425.635 13.0488Z" fill="black" fill-opacity="0.7"/>
<path d="M397.73 7.0127V17H396.083V8.96777L393.643 9.79492V8.43457L397.532 7.0127H397.73ZM407.861 15.6875V17H401.189V15.8721L404.43 12.3379C404.785 11.9368 405.065 11.5905 405.271 11.2988C405.476 11.0072 405.619 10.7451 405.701 10.5127C405.788 10.2757 405.831 10.0456 405.831 9.82227C405.831 9.50781 405.772 9.2321 405.653 8.99512C405.539 8.75358 405.371 8.56445 405.147 8.42773C404.924 8.28646 404.653 8.21582 404.334 8.21582C403.965 8.21582 403.655 8.29557 403.404 8.45508C403.154 8.61458 402.965 8.83561 402.837 9.11816C402.709 9.39616 402.646 9.71517 402.646 10.0752H400.998C400.998 9.49642 401.13 8.96777 401.395 8.48926C401.659 8.00618 402.042 7.62337 402.543 7.34082C403.044 7.05371 403.648 6.91016 404.354 6.91016C405.02 6.91016 405.585 7.02181 406.05 7.24512C406.515 7.46842 406.868 7.78516 407.109 8.19531C407.355 8.60547 407.479 9.09082 407.479 9.65137C407.479 9.96126 407.428 10.2689 407.328 10.5742C407.228 10.8796 407.084 11.1849 406.897 11.4902C406.715 11.791 406.499 12.0941 406.248 12.3994C405.997 12.7002 405.722 13.0055 405.421 13.3154L403.268 15.6875H407.861ZM409.263 16.1797C409.263 15.9245 409.349 15.7103 409.522 15.5371C409.696 15.3594 409.93 15.2705 410.227 15.2705C410.527 15.2705 410.762 15.3594 410.931 15.5371C411.104 15.7103 411.19 15.9245 411.19 16.1797C411.19 16.4349 411.104 16.6491 410.931 16.8223C410.762 16.9954 410.527 17.082 410.227 17.082C409.93 17.082 409.696 16.9954 409.522 16.8223C409.349 16.6491 409.263 16.4349 409.263 16.1797ZM409.27 10.3555C409.27 10.1003 409.356 9.88607 409.529 9.71289C409.702 9.53516 409.937 9.44629 410.233 9.44629C410.534 9.44629 410.769 9.53516 410.938 9.71289C411.111 9.88607 411.197 10.1003 411.197 10.3555C411.197 10.6107 411.111 10.8249 410.938 10.998C410.769 11.1712 410.534 11.2578 410.233 11.2578C409.937 11.2578 409.702 11.1712 409.529 10.998C409.356 10.8249 409.27 10.6107 409.27 10.3555ZM414.772 11.2783H415.757C416.14 11.2783 416.456 11.2122 416.707 11.0801C416.962 10.9479 417.151 10.7656 417.274 10.5332C417.397 10.3008 417.459 10.0342 417.459 9.7334C417.459 9.41895 417.402 9.15007 417.288 8.92676C417.179 8.69889 417.01 8.52344 416.782 8.40039C416.559 8.27734 416.274 8.21582 415.928 8.21582C415.636 8.21582 415.372 8.27507 415.135 8.39355C414.902 8.50749 414.718 8.67155 414.581 8.88574C414.444 9.09538 414.376 9.34603 414.376 9.6377H412.722C412.722 9.10905 412.861 8.63965 413.139 8.22949C413.417 7.81934 413.795 7.49805 414.273 7.26562C414.757 7.02865 415.299 6.91016 415.9 6.91016C416.543 6.91016 417.104 7.01725 417.582 7.23145C418.065 7.44108 418.441 7.75553 418.71 8.1748C418.979 8.59408 419.113 9.11361 419.113 9.7334C419.113 10.016 419.047 10.3031 418.915 10.5947C418.783 10.8864 418.587 11.153 418.327 11.3945C418.067 11.6315 417.744 11.8252 417.356 11.9756C416.969 12.1214 416.52 12.1943 416.01 12.1943H414.772V11.2783ZM414.772 12.5635V11.6611H416.01C416.593 11.6611 417.09 11.7295 417.5 11.8662C417.915 12.0029 418.252 12.1921 418.512 12.4336C418.771 12.6706 418.961 12.9417 419.079 13.2471C419.202 13.5524 419.264 13.876 419.264 14.2178C419.264 14.6826 419.179 15.0973 419.011 15.4619C418.847 15.8219 418.612 16.1273 418.307 16.3779C418.001 16.6286 417.644 16.8177 417.233 16.9453C416.828 17.0729 416.386 17.1367 415.907 17.1367C415.479 17.1367 415.069 17.0775 414.677 16.959C414.285 16.8405 413.934 16.665 413.624 16.4326C413.314 16.1956 413.068 15.9017 412.886 15.5508C412.708 15.1953 412.619 14.7852 412.619 14.3203H414.267C414.267 14.6165 414.335 14.8786 414.472 15.1064C414.613 15.3298 414.809 15.5052 415.06 15.6328C415.315 15.7604 415.606 15.8242 415.935 15.8242C416.281 15.8242 416.579 15.7627 416.83 15.6396C417.081 15.5166 417.272 15.3343 417.404 15.0928C417.541 14.8512 417.609 14.5596 417.609 14.2178C417.609 13.8304 417.534 13.516 417.384 13.2744C417.233 13.0329 417.019 12.8551 416.741 12.7412C416.463 12.6227 416.135 12.5635 415.757 12.5635H414.772ZM427.282 11.1895V12.8164C427.282 13.5957 427.205 14.2611 427.05 14.8125C426.899 15.3594 426.681 15.8037 426.394 16.1455C426.106 16.4873 425.762 16.738 425.361 16.8975C424.965 17.057 424.521 17.1367 424.028 17.1367C423.636 17.1367 423.272 17.0866 422.935 16.9863C422.602 16.8861 422.301 16.7288 422.032 16.5146C421.763 16.3005 421.533 16.0247 421.342 15.6875C421.155 15.3457 421.009 14.9378 420.904 14.4639C420.804 13.9899 420.754 13.4408 420.754 12.8164V11.1895C420.754 10.4056 420.831 9.74479 420.986 9.20703C421.141 8.66471 421.362 8.22493 421.649 7.8877C421.937 7.5459 422.278 7.29753 422.675 7.14258C423.076 6.98763 423.522 6.91016 424.015 6.91016C424.411 6.91016 424.776 6.96029 425.108 7.06055C425.446 7.15625 425.746 7.30892 426.011 7.51855C426.28 7.72819 426.507 8.00163 426.694 8.33887C426.886 8.67155 427.032 9.07487 427.132 9.54883C427.232 10.0182 427.282 10.5651 427.282 11.1895ZM425.635 13.0488V10.9434C425.635 10.5469 425.612 10.1982 425.566 9.89746C425.521 9.59212 425.452 9.33464 425.361 9.125C425.275 8.91081 425.165 8.73763 425.033 8.60547C424.901 8.46875 424.751 8.37077 424.582 8.31152C424.413 8.24772 424.224 8.21582 424.015 8.21582C423.759 8.21582 423.532 8.26595 423.331 8.36621C423.131 8.46191 422.962 8.61686 422.825 8.83105C422.688 9.04525 422.584 9.3278 422.511 9.67871C422.442 10.0251 422.408 10.4466 422.408 10.9434V13.0488C422.408 13.4499 422.431 13.8031 422.477 14.1084C422.522 14.4137 422.59 14.6758 422.682 14.8945C422.773 15.1087 422.882 15.2865 423.01 15.4277C423.142 15.5645 423.292 15.6647 423.461 15.7285C423.634 15.7923 423.823 15.8242 424.028 15.8242C424.288 15.8242 424.518 15.7741 424.719 15.6738C424.919 15.5736 425.088 15.4141 425.225 15.1953C425.361 14.972 425.464 14.6826 425.532 14.3271C425.601 13.9717 425.635 13.5456 425.635 13.0488Z" fill="black" fill-opacity="0.7"/>
<path d="M397.73 7.0127V17H396.083V8.96777L393.643 9.79492V8.43457L397.532 7.0127H397.73ZM407.861 15.6875V17H401.189V15.8721L404.43 12.3379C404.785 11.9368 405.065 11.5905 405.271 11.2988C405.476 11.0072 405.619 10.7451 405.701 10.5127C405.788 10.2757 405.831 10.0456 405.831 9.82227C405.831 9.50781 405.772 9.2321 405.653 8.99512C405.539 8.75358 405.371 8.56445 405.147 8.42773C404.924 8.28646 404.653 8.21582 404.334 8.21582C403.965 8.21582 403.655 8.29557 403.404 8.45508C403.154 8.61458 402.965 8.83561 402.837 9.11816C402.709 9.39616 402.646 9.71517 402.646 10.0752H400.998C400.998 9.49642 401.13 8.96777 401.395 8.48926C401.659 8.00618 402.042 7.62337 402.543 7.34082C403.044 7.05371 403.648 6.91016 404.354 6.91016C405.02 6.91016 405.585 7.02181 406.05 7.24512C406.515 7.46842 406.868 7.78516 407.109 8.19531C407.355 8.60547 407.479 9.09082 407.479 9.65137C407.479 9.96126 407.428 10.2689 407.328 10.5742C407.228 10.8796 407.084 11.1849 406.897 11.4902C406.715 11.791 406.499 12.0941 406.248 12.3994C405.997 12.7002 405.722 13.0055 405.421 13.3154L403.268 15.6875H407.861ZM409.263 16.1797C409.263 15.9245 409.349 15.7103 409.522 15.5371C409.696 15.3594 409.93 15.2705 410.227 15.2705C410.527 15.2705 410.762 15.3594 410.931 15.5371C411.104 15.7103 411.19 15.9245 411.19 16.1797C411.19 16.4349 411.104 16.6491 410.931 16.8223C410.762 16.9954 410.527 17.082 410.227 17.082C409.93 17.082 409.696 16.9954 409.522 16.8223C409.349 16.6491 409.263 16.4349 409.263 16.1797ZM409.27 10.3555C409.27 10.1003 409.356 9.88607 409.529 9.71289C409.702 9.53516 409.937 9.44629 410.233 9.44629C410.534 9.44629 410.769 9.53516 410.938 9.71289C411.111 9.88607 411.197 10.1003 411.197 10.3555C411.197 10.6107 411.111 10.8249 410.938 10.998C410.769 11.1712 410.534 11.2578 410.233 11.2578C409.937 11.2578 409.702 11.1712 409.529 10.998C409.356 10.8249 409.27 10.6107 409.27 10.3555ZM414.772 11.2783H415.757C416.14 11.2783 416.456 11.2122 416.707 11.0801C416.962 10.9479 417.151 10.7656 417.274 10.5332C417.397 10.3008 417.459 10.0342 417.459 9.7334C417.459 9.41895 417.402 9.15007 417.288 8.92676C417.179 8.69889 417.01 8.52344 416.782 8.40039C416.559 8.27734 416.274 8.21582 415.928 8.21582C415.636 8.21582 415.372 8.27507 415.135 8.39355C414.902 8.50749 414.718 8.67155 414.581 8.88574C414.444 9.09538 414.376 9.34603 414.376 9.6377H412.722C412.722 9.10905 412.861 8.63965 413.139 8.22949C413.417 7.81934 413.795 7.49805 414.273 7.26562C414.757 7.02865 415.299 6.91016 415.9 6.91016C416.543 6.91016 417.104 7.01725 417.582 7.23145C418.065 7.44108 418.441 7.75553 418.71 8.1748C418.979 8.59408 419.113 9.11361 419.113 9.7334C419.113 10.016 419.047 10.3031 418.915 10.5947C418.783 10.8864 418.587 11.153 418.327 11.3945C418.067 11.6315 417.744 11.8252 417.356 11.9756C416.969 12.1214 416.52 12.1943 416.01 12.1943H414.772V11.2783ZM414.772 12.5635V11.6611H416.01C416.593 11.6611 417.09 11.7295 417.5 11.8662C417.915 12.0029 418.252 12.1921 418.512 12.4336C418.771 12.6706 418.961 12.9417 419.079 13.2471C419.202 13.5524 419.264 13.876 419.264 14.2178C419.264 14.6826 419.179 15.0973 419.011 15.4619C418.847 15.8219 418.612 16.1273 418.307 16.3779C418.001 16.6286 417.644 16.8177 417.233 16.9453C416.828 17.0729 416.386 17.1367 415.907 17.1367C415.479 17.1367 415.069 17.0775 414.677 16.959C414.285 16.8405 413.934 16.665 413.624 16.4326C413.314 16.1956 413.068 15.9017 412.886 15.5508C412.708 15.1953 412.619 14.7852 412.619 14.3203H414.267C414.267 14.6165 414.335 14.8786 414.472 15.1064C414.613 15.3298 414.809 15.5052 415.06 15.6328C415.315 15.7604 415.606 15.8242 415.935 15.8242C416.281 15.8242 416.579 15.7627 416.83 15.6396C417.081 15.5166 417.272 15.3343 417.404 15.0928C417.541 14.8512 417.609 14.5596 417.609 14.2178C417.609 13.8304 417.534 13.516 417.384 13.2744C417.233 13.0329 417.019 12.8551 416.741 12.7412C416.463 12.6227 416.135 12.5635 415.757 12.5635H414.772ZM427.282 11.1895V12.8164C427.282 13.5957 427.205 14.2611 427.05 14.8125C426.899 15.3594 426.681 15.8037 426.394 16.1455C426.106 16.4873 425.762 16.738 425.361 16.8975C424.965 17.057 424.521 17.1367 424.028 17.1367C423.636 17.1367 423.272 17.0866 422.935 16.9863C422.602 16.8861 422.301 16.7288 422.032 16.5146C421.763 16.3005 421.533 16.0247 421.342 15.6875C421.155 15.3457 421.009 14.9378 420.904 14.4639C420.804 13.9899 420.754 13.4408 420.754 12.8164V11.1895C420.754 10.4056 420.831 9.74479 420.986 9.20703C421.141 8.66471 421.362 8.22493 421.649 7.8877C421.937 7.5459 422.278 7.29753 422.675 7.14258C423.076 6.98763 423.522 6.91016 424.015 6.91016C424.411 6.91016 424.776 6.96029 425.108 7.06055C425.446 7.15625 425.746 7.30892 426.011 7.51855C426.28 7.72819 426.507 8.00163 426.694 8.33887C426.886 8.67155 427.032 9.07487 427.132 9.54883C427.232 10.0182 427.282 10.5651 427.282 11.1895ZM425.635 13.0488V10.9434C425.635 10.5469 425.612 10.1982 425.566 9.89746C425.521 9.59212 425.452 9.33464 425.361 9.125C425.275 8.91081 425.165 8.73763 425.033 8.60547C424.901 8.46875 424.751 8.37077 424.582 8.31152C424.413 8.24772 424.224 8.21582 424.015 8.21582C423.759 8.21582 423.532 8.26595 423.331 8.36621C423.131 8.46191 422.962 8.61686 422.825 8.83105C422.688 9.04525 422.584 9.3278 422.511 9.67871C422.442 10.0251 422.408 10.4466 422.408 10.9434V13.0488C422.408 13.4499 422.431 13.8031 422.477 14.1084C422.522 14.4137 422.59 14.6758 422.682 14.8945C422.773 15.1087 422.882 15.2865 423.01 15.4277C423.142 15.5645 423.292 15.6647 423.461 15.7285C423.634 15.7923 423.823 15.8242 424.028 15.8242C424.288 15.8242 424.518 15.7741 424.719 15.6738C424.919 15.5736 425.088 15.4141 425.225 15.1953C425.361 14.972 425.464 14.6826 425.532 14.3271C425.601 13.9717 425.635 13.5456 425.635 13.0488Z" fill="black" fill-opacity="0.7"/>
<path fill-rule="evenodd" clip-rule="evenodd" d="M382 5.875V5L379 5V5.875H376V19H385V5.875H382Z" fill="black" fill-opacity="0.7"/>
<path fill-rule="evenodd" clip-rule="evenodd" d="M353 19H367V5L353 19Z" fill="black" fill-opacity="0.7"/>
<path d="M332.977 8.01593L342 19L351.023 8.01593C348.512 6.12256 345.387 5 342 5C338.613 5 335.488 6.12256 332.977 8.01593Z" fill="black" fill-opacity="0.7"/>
</svg>
